# xmcd
#
# Track frame offsets: 
#        150
#        17440
#        37800
#        49975
#        68460
#        87825
#        99535
#        117797
#        144105
#        174190
#
# Disc length: 2673 seconds
#
# Revision: 3
# Processed by: cddbd v1.5.2PL0 Copyright (c) Steve Scherf et al.
# Submitted via: ExactAudioCopy v0.95b2
#
DISCID=6a0a6f0a
DTITLE=The Dramatics - Joy Ride
DYEAR=1900
DGENRE=
TTITLE0=After This Dance
TTITLE1=Be My Girl
TTITLE2=Finger Fever
TTITLE3=I Can't Get Over You
TTITLE4=I Get Carried Away
TTITLE5=Richest Man Alive
TTITLE6=Say The Word
TTITLE7=Sun Down Is Coming (Hold Back The Night)
TTITLE8=Welcome Back Home
TTITLE9=Shake It Well
EXTD=
EXTT0=
EXTT1=
EXTT2=
EXTT3=
EXTT4=
EXTT5=
EXTT6=
EXTT7=
EXTT8=
EXTT9=
PLAYORDER=
